<svg xmlns="http://www.w3.org/2000/svg" xmlns:xlink="http://www.w3.org/1999/xlink" width="500" zoomAndPan="magnify" viewBox="0 0 375 374.999991" height="500" preserveAspectRatio="xMidYMid meet" version="1.0"><defs><g/><clipPath id="9a001534c3"><path d="M 94.253906 6.277344 L 281.003906 6.277344 L 281.003906 226 L 94.253906 226 Z M 94.253906 6.277344 " clip-rule="nonzero"/></clipPath><clipPath id="f8358ccffd"><path d="M 207.046875 40.285156 C 206.847656 37.246094 207.484375 34.273438 208.816406 31.644531 C 210.152344 29.015625 212.175781 26.730469 214.742188 25.082031 C 217.304688 23.429688 220.226562 22.542969 223.1875 22.4375 C 226.136719 22.320312 229.113281 22.980469 231.796875 24.421875 C 234.480469 25.859375 236.660156 27.988281 238.207031 30.511719 C 239.742188 33.03125 240.601562 35.953125 240.65625 39.003906 C 240.679688 41.222656 238.894531 43.046875 236.675781 43.070312 C 234.453125 43.097656 232.628906 41.316406 232.601562 39.097656 C 232.578125 37.511719 232.125 35.992188 231.332031 34.683594 C 230.539062 33.390625 229.402344 32.292969 227.988281 31.527344 C 226.585938 30.773438 225.027344 30.429688 223.492188 30.484375 C 221.972656 30.535156 220.464844 31 219.117188 31.871094 C 217.78125 32.730469 216.722656 33.917969 216.035156 35.277344 C 215.347656 36.640625 215.019531 38.199219 215.109375 39.796875 C 215.257812 42.015625 213.5625 43.929688 211.34375 44.0625 C 209.121094 44.207031 207.203125 42.515625 207.058594 40.296875 Z M 164.765625 210.722656 L 215.402344 210.722656 L 215.402344 217.722656 L 196.03125 217.722656 C 196.03125 222.253906 192.355469 225.914062 187.835938 225.914062 C 183.3125 225.914062 179.636719 222.242188 179.636719 217.722656 L 164.765625 217.722656 Z M 153.382812 198.121094 L 226.773438 198.121094 L 226.773438 205.121094 L 153.382812 205.121094 Z M 257.683594 75.472656 C 260.738281 76.792969 263.105469 79.105469 264.53125 81.921875 C 265.945312 84.71875 266.410156 87.996094 265.65625 91.234375 C 264.902344 94.46875 263.039062 97.203125 260.511719 99.105469 C 258 100.996094 254.855469 102.023438 251.535156 101.851562 C 249.3125 101.734375 247.59375 99.84375 247.714844 97.625 C 247.832031 95.40625 249.722656 93.691406 251.945312 93.808594 C 253.332031 93.875 254.644531 93.453125 255.675781 92.671875 C 256.707031 91.894531 257.472656 90.757812 257.777344 89.410156 C 258.09375 88.0625 257.910156 86.703125 257.3125 85.550781 C 256.730469 84.402344 255.753906 83.4375 254.472656 82.898438 C 252.421875 82.011719 251.46875 79.648438 252.355469 77.601562 C 253.242188 75.554688 255.609375 74.601562 257.65625 75.488281 Z M 153.382812 191.015625 L 226.773438 191.015625 L 226.773438 164.265625 C 227.167969 164.160156 227.566406 164.042969 227.949219 163.910156 C 234.507812 161.808594 240.351562 157.53125 244.34375 151.453125 C 246.589844 148.019531 248.085938 144.265625 248.824219 140.4375 C 251.324219 140.144531 253.742188 139.433594 255.976562 138.335938 C 259.324219 136.699219 262.246094 134.203125 264.414062 131.019531 C 266.582031 127.835938 267.835938 124.203125 268.140625 120.503906 C 268.339844 118.046875 268.113281 115.5625 267.480469 113.148438 C 269.265625 112.050781 270.90625 110.753906 272.398438 109.304688 C 276.828125 104.96875 279.855469 99.210938 280.742188 92.75 C 281.628906 86.292969 280.265625 79.9375 277.160156 74.589844 C 276.300781 73.097656 275.292969 71.695312 274.183594 70.375 C 275.414062 67.390625 276.085938 64.234375 276.191406 61.035156 C 276.324219 56.875 275.492188 52.6875 273.667969 48.816406 C 271.84375 44.949219 269.144531 41.632812 265.839844 39.082031 C 263.316406 37.128906 260.433594 35.621094 257.328125 34.683594 C 256.519531 30.140625 254.773438 25.726562 252.117188 21.738281 C 248.175781 15.820312 242.625 11.421875 236.316406 8.886719 C 230.023438 6.351562 222.976562 5.691406 216.050781 7.222656 C 209.109375 8.753906 203 12.347656 198.359375 17.300781 C 195.160156 20.722656 192.648438 24.804688 191.046875 29.320312 C 188.828125 35.621094 189.433594 39.253906 189.433594 45.953125 L 189.433594 184.015625 L 180.074219 184.015625 L 180.074219 10.417969 C 142.339844 8.765625 107.542969 33.640625 111.917969 74.207031 C 112.753906 79.871094 111.378906 84.984375 107.820312 89.542969 L 95.3125 105.472656 C 94.175781 107.175781 93.953125 109.328125 94.707031 111.21875 C 95.457031 113.121094 97.097656 114.519531 99.09375 114.996094 C 104.355469 115.933594 105.984375 118.457031 103.960938 122.566406 C 100.933594 125.667969 100.125 127.929688 101.539062 129.339844 C 102.453125 130.34375 102.464844 131.863281 101.582031 132.882812 C 100.695312 134.082031 101.089844 135.445312 102.769531 136.949219 C 105.640625 140.636719 106.246094 144.78125 104.609375 149.40625 C 103.589844 151.941406 103.722656 154.796875 104.976562 157.226562 C 106.234375 159.65625 108.496094 161.414062 111.152344 162.035156 C 115.515625 162.933594 119.984375 163.40625 124.519531 163.460938 C 137.648438 163.59375 147.273438 172.773438 153.394531 191 Z M 218.679688 184.015625 L 197.5 184.015625 L 197.5 126.898438 C 200.660156 128.21875 204.257812 128.457031 207.71875 127.320312 C 211.304688 126.144531 214.144531 123.714844 215.90625 120.648438 C 217.648438 117.597656 218.296875 113.914062 217.492188 110.253906 C 217.015625 108.074219 214.859375 106.699219 212.679688 107.175781 C 210.496094 107.652344 209.121094 109.804688 209.597656 111.984375 C 209.953125 113.636719 209.675781 115.300781 208.882812 116.660156 C 208.105469 118.019531 206.835938 119.105469 205.222656 119.632812 C 203.609375 120.160156 201.929688 120.042969 200.488281 119.394531 C 199.257812 118.851562 198.214844 117.929688 197.5 116.714844 L 197.5 66.585938 C 198.003906 65.621094 198.78125 64.867188 199.695312 64.378906 C 200.804688 63.796875 202.128906 63.585938 203.421875 63.902344 C 204.71875 64.21875 205.804688 64.984375 206.515625 66.003906 C 207.230469 67.019531 207.574219 68.300781 207.429688 69.636719 C 207.179688 71.839844 208.765625 73.847656 210.984375 74.101562 C 213.207031 74.351562 215.203125 72.765625 215.453125 70.546875 C 215.839844 67.203125 214.9375 63.980469 213.128906 61.394531 C 211.316406 58.804688 208.59375 56.863281 205.328125 56.070312 L 205.3125 56.070312 C 202.628906 55.421875 199.933594 55.632812 197.511719 56.546875 L 197.511719 45.515625 C 197.511719 39.253906 196.917969 35.316406 199.695312 29.453125 C 200.871094 26.984375 202.40625 24.722656 204.257812 22.757812 C 207.8125 18.964844 212.480469 16.21875 217.78125 15.042969 C 223.082031 13.867188 228.492188 14.382812 233.316406 16.335938 C 238.128906 18.277344 242.375 21.632812 245.386719 26.152344 C 248.402344 30.679688 249.871094 35.914062 249.804688 41.105469 C 249.738281 46.28125 248.109375 51.460938 244.976562 55.898438 C 243.695312 57.722656 244.132812 60.230469 245.957031 61.511719 C 247.78125 62.792969 250.304688 62.355469 251.574219 60.535156 C 255.210938 55.394531 257.273438 49.492188 257.75 43.453125 C 258.875 44.007812 259.929688 44.671875 260.910156 45.421875 C 263.195312 47.191406 265.085938 49.519531 266.355469 52.226562 C 267.625 54.933594 268.222656 57.851562 268.128906 60.757812 C 268.089844 62.066406 267.902344 63.375 267.585938 64.65625 C 266.199219 63.796875 264.730469 63.042969 263.171875 62.410156 C 261.109375 61.566406 258.753906 62.570312 257.910156 64.628906 C 257.074219 66.691406 258.066406 69.042969 260.128906 69.886719 C 264.480469 71.644531 267.941406 74.773438 270.164062 78.605469 C 272.386719 82.449219 273.363281 87.003906 272.730469 91.65625 C 272.09375 96.292969 269.925781 100.414062 266.753906 103.503906 C 263.582031 106.609375 259.402344 108.683594 254.75 109.210938 C 252.539062 109.460938 250.953125 111.46875 251.203125 113.675781 C 251.457031 115.882812 253.4375 117.453125 255.632812 117.226562 C 257.089844 117.054688 258.53125 116.777344 259.90625 116.410156 C 260.101562 117.546875 260.15625 118.707031 260.0625 119.855469 C 259.878906 122.207031 259.085938 124.492188 257.738281 126.488281 C 256.375 128.496094 254.535156 130.054688 252.433594 131.097656 C 251.441406 131.585938 250.386719 131.957031 249.289062 132.195312 C 249.261719 131.957031 249.25 131.71875 249.222656 131.480469 C 248.535156 124.636719 245.574219 118.035156 240.441406 112.855469 C 238.871094 111.285156 236.316406 111.269531 234.746094 112.84375 C 233.15625 114.414062 233.15625 116.949219 234.730469 118.535156 C 238.511719 122.351562 240.695312 127.226562 241.195312 132.261719 C 241.699219 137.304688 240.523438 142.523438 237.574219 147.027344 C 234.625 151.53125 230.316406 154.691406 225.476562 156.234375 C 220.652344 157.78125 215.28125 157.726562 210.273438 155.785156 C 208.195312 154.980469 205.855469 156.011719 205.0625 158.085938 C 204.257812 160.15625 205.289062 162.484375 207.363281 163.289062 C 211.066406 164.714844 214.886719 165.390625 218.667969 165.375 L 218.667969 184 Z M 212.574219 137.53125 C 210.945312 136.011719 208.394531 136.105469 206.875 137.730469 C 205.355469 139.355469 205.445312 141.917969 207.085938 143.421875 C 209.875 146.023438 213.433594 147.398438 217.027344 147.515625 C 220.609375 147.636719 224.246094 146.5 227.207031 144.082031 C 230.183594 141.664062 232.035156 138.335938 232.640625 134.796875 C 233.25 131.28125 232.617188 127.53125 230.632812 124.253906 C 229.484375 122.351562 227.011719 121.746094 225.105469 122.894531 C 223.203125 124.042969 222.59375 126.515625 223.746094 128.417969 C 224.683594 129.960938 224.972656 131.746094 224.683594 133.4375 C 224.390625 135.113281 223.519531 136.683594 222.117188 137.820312 C 220.71875 138.96875 218.984375 139.5 217.28125 139.445312 C 215.585938 139.394531 213.90625 138.734375 212.574219 137.503906 Z M 242.308594 88.113281 C 240.257812 87.230469 237.890625 88.15625 237.003906 90.203125 C 235.828125 92.898438 233.78125 94.984375 231.308594 96.238281 C 228.820312 97.492188 225.925781 97.902344 223.042969 97.257812 C 220.175781 96.609375 217.742188 94.984375 216.035156 92.792969 C 214.34375 90.597656 213.378906 87.824219 213.484375 84.878906 C 213.550781 82.660156 211.804688 80.796875 209.585938 80.730469 C 207.363281 80.664062 205.5 82.410156 205.433594 84.628906 C 205.273438 89.488281 206.847656 94.085938 209.664062 97.71875 C 212.480469 101.351562 216.527344 104.046875 221.285156 105.117188 C 226.046875 106.183594 230.84375 105.511719 234.941406 103.4375 C 239.054688 101.363281 242.453125 97.902344 244.410156 93.425781 C 245.296875 91.390625 244.371094 89.011719 242.320312 88.128906 Z M 225.277344 77.707031 C 223.164062 78.40625 222.027344 80.691406 222.738281 82.804688 C 223.441406 84.917969 225.726562 86.054688 227.84375 85.339844 C 232.167969 83.886719 235.589844 80.941406 237.707031 77.257812 C 239.820312 73.570312 240.628906 69.148438 239.714844 64.695312 C 238.804688 60.242188 236.304688 56.492188 232.894531 53.941406 C 229.484375 51.378906 225.1875 50.019531 220.664062 50.375 C 218.441406 50.546875 216.777344 52.488281 216.949219 54.710938 C 217.121094 56.929688 219.0625 58.59375 221.285156 58.421875 C 223.796875 58.222656 226.175781 58.960938 228.054688 60.375 C 229.933594 61.789062 231.308594 63.851562 231.808594 66.308594 C 232.3125 68.75 231.863281 71.207031 230.6875 73.253906 C 229.507812 75.289062 227.632812 76.914062 225.277344 77.707031 Z M 225.277344 77.707031 " clip-rule="evenodd"/></clipPath><linearGradient x1="115.643556" gradientTransform="matrix(1.322124, 0, 0, 1.32092, 94.255777, 6.38983)" y1="-3.961451" x2="87.876111" gradientUnits="userSpaceOnUse" y2="179.490966" id="6c243be55d"><stop stop-opacity="1" stop-color="rgb(65.899658%, 81.199646%, 27.099609%)" offset="0"/><stop stop-opacity="1" stop-color="rgb(65.899658%, 81.199646%, 27.099609%)" offset="0.03125"/><stop stop-opacity="1" stop-color="rgb(65.899658%, 81.199646%, 27.099609%)" offset="0.046875"/><stop stop-opacity="1" stop-color="rgb(65.872192%, 81.187439%, 27.131653%)" offset="0.0546875"/><stop stop-opacity="1" stop-color="rgb(65.681458%, 81.10199%, 27.368164%)" offset="0.0585937"/><stop stop-opacity="1" stop-color="rgb(65.518188%, 81.028748%, 27.572632%)" offset="0.0625"/><stop stop-opacity="1" stop-color="rgb(65.353394%, 80.953979%, 27.775574%)" offset="0.0664062"/><stop stop-opacity="1" stop-color="rgb(65.190125%, 80.880737%, 27.980042%)" offset="0.0703125"/><stop stop-opacity="1" stop-color="rgb(65.02533%, 80.807495%, 28.182983%)" offset="0.0742187"/><stop stop-opacity="1" stop-color="rgb(64.860535%, 80.734253%, 28.387451%)" offset="0.078125"/><stop stop-opacity="1" stop-color="rgb(64.69574%, 80.659485%, 28.590393%)" offset="0.0820312"/><stop stop-opacity="1" stop-color="rgb(64.532471%, 80.586243%, 28.793335%)" offset="0.0859375"/><stop stop-opacity="1" stop-color="rgb(64.367676%, 80.511475%, 28.996277%)" offset="0.0898437"/><stop stop-opacity="1" stop-color="rgb(64.204407%, 80.438232%, 29.200745%)" offset="0.09375"/><stop stop-opacity="1" stop-color="rgb(64.039612%, 80.36499%, 29.403687%)" offset="0.0976562"/><stop stop-opacity="1" stop-color="rgb(63.876343%, 80.291748%, 29.608154%)" offset="0.101562"/><stop stop-opacity="1" stop-color="rgb(63.711548%, 80.21698%, 29.811096%)" offset="0.105469"/><stop stop-opacity="1" stop-color="rgb(63.548279%, 80.143738%, 30.015564%)" offset="0.109375"/><stop stop-opacity="1" stop-color="rgb(63.383484%, 80.070496%, 30.218506%)" offset="0.113281"/><stop stop-opacity="1" stop-color="rgb(63.220215%, 79.997253%, 30.422974%)" offset="0.117187"/><stop stop-opacity="1" stop-color="rgb(63.05542%, 79.922485%, 30.625916%)" offset="0.121094"/><stop stop-opacity="1" stop-color="rgb(62.890625%, 79.849243%, 30.830383%)" offset="0.125"/><stop stop-opacity="1" stop-color="rgb(62.72583%, 79.776001%, 31.033325%)" offset="0.128906"/><stop stop-opacity="1" stop-color="rgb(62.562561%, 79.702759%, 31.237793%)" offset="0.132812"/><stop stop-opacity="1" stop-color="rgb(62.397766%, 79.627991%, 31.440735%)" offset="0.136719"/><stop stop-opacity="1" stop-color="rgb(62.234497%, 79.554749%, 31.645203%)" offset="0.140625"/><stop stop-opacity="1" stop-color="rgb(62.069702%, 79.481506%, 31.848145%)" offset="0.144531"/><stop stop-opacity="1" stop-color="rgb(61.906433%, 79.408264%, 32.052612%)" offset="0.148438"/><stop stop-opacity="1" stop-color="rgb(61.741638%, 79.333496%, 32.255554%)" offset="0.152344"/><stop stop-opacity="1" stop-color="rgb(61.578369%, 79.260254%, 32.460022%)" offset="0.15625"/><stop stop-opacity="1" stop-color="rgb(61.413574%, 79.187012%, 32.662964%)" offset="0.160156"/><stop stop-opacity="1" stop-color="rgb(61.250305%, 79.11377%, 32.867432%)" offset="0.164062"/><stop stop-opacity="1" stop-color="rgb(61.08551%, 79.039001%, 33.070374%)" offset="0.167969"/><stop stop-opacity="1" stop-color="rgb(60.920715%, 78.965759%, 33.274841%)" offset="0.171875"/><stop stop-opacity="1" stop-color="rgb(60.75592%, 78.890991%, 33.477783%)" offset="0.175781"/><stop stop-opacity="1" stop-color="rgb(60.592651%, 78.817749%, 33.682251%)" offset="0.179687"/><stop stop-opacity="1" stop-color="rgb(60.427856%, 78.744507%, 33.885193%)" offset="0.183594"/><stop stop-opacity="1" stop-color="rgb(60.264587%, 78.671265%, 34.088135%)" offset="0.1875"/><stop stop-opacity="1" stop-color="rgb(60.099792%, 78.596497%, 34.291077%)" offset="0.191406"/><stop stop-opacity="1" stop-color="rgb(59.936523%, 78.523254%, 34.495544%)" offset="0.195312"/><stop stop-opacity="1" stop-color="rgb(59.771729%, 78.450012%, 34.698486%)" offset="0.199219"/><stop stop-opacity="1" stop-color="rgb(59.608459%, 78.37677%, 34.902954%)" offset="0.203125"/><stop stop-opacity="1" stop-color="rgb(59.443665%, 78.302002%, 35.105896%)" offset="0.207031"/><stop stop-opacity="1" stop-color="rgb(59.27887%, 78.22876%, 35.310364%)" offset="0.210938"/><stop stop-opacity="1" stop-color="rgb(59.114075%, 78.155518%, 35.513306%)" offset="0.214844"/><stop stop-opacity="1" stop-color="rgb(58.950806%, 78.082275%, 35.717773%)" offset="0.21875"/><stop stop-opacity="1" stop-color="rgb(58.786011%, 78.007507%, 35.920715%)" offset="0.222656"/><stop stop-opacity="1" stop-color="rgb(58.622742%, 77.934265%, 36.125183%)" offset="0.226562"/><stop stop-opacity="1" stop-color="rgb(58.457947%, 77.861023%, 36.328125%)" offset="0.230469"/><stop stop-opacity="1" stop-color="rgb(58.294678%, 77.787781%, 36.532593%)" offset="0.234375"/><stop stop-opacity="1" stop-color="rgb(58.129883%, 77.713013%, 36.735535%)" offset="0.238281"/><stop stop-opacity="1" stop-color="rgb(57.966614%, 77.639771%, 36.940002%)" offset="0.242187"/><stop stop-opacity="1" stop-color="rgb(57.801819%, 77.566528%, 37.142944%)" offset="0.246094"/><stop stop-opacity="1" stop-color="rgb(57.63855%, 77.493286%, 37.347412%)" offset="0.25"/><stop stop-opacity="1" stop-color="rgb(57.473755%, 77.418518%, 37.550354%)" offset="0.253906"/><stop stop-opacity="1" stop-color="rgb(57.30896%, 77.345276%, 37.754822%)" offset="0.257812"/><stop stop-opacity="1" stop-color="rgb(57.144165%, 77.270508%, 37.957764%)" offset="0.261719"/><stop stop-opacity="1" stop-color="rgb(56.980896%, 77.197266%, 38.162231%)" offset="0.265625"/><stop stop-opacity="1" stop-color="rgb(56.816101%, 77.124023%, 38.365173%)" offset="0.269531"/><stop stop-opacity="1" stop-color="rgb(56.652832%, 77.050781%, 38.569641%)" offset="0.273438"/><stop stop-opacity="1" stop-color="rgb(56.488037%, 76.976013%, 38.772583%)" offset="0.277344"/><stop stop-opacity="1" stop-color="rgb(56.324768%, 76.902771%, 38.977051%)" offset="0.28125"/><stop stop-opacity="1" stop-color="rgb(56.159973%, 76.829529%, 39.179993%)" offset="0.285156"/><stop stop-opacity="1" stop-color="rgb(55.996704%, 76.756287%, 39.382935%)" offset="0.289062"/><stop stop-opacity="1" stop-color="rgb(55.831909%, 76.681519%, 39.585876%)" offset="0.292969"/><stop stop-opacity="1" stop-color="rgb(55.667114%, 76.608276%, 39.790344%)" offset="0.296875"/><stop stop-opacity="1" stop-color="rgb(55.502319%, 76.535034%, 39.993286%)" offset="0.300781"/><stop stop-opacity="1" stop-color="rgb(55.33905%, 76.461792%, 40.197754%)" offset="0.304688"/><stop stop-opacity="1" stop-color="rgb(55.174255%, 76.387024%, 40.400696%)" offset="0.308594"/><stop stop-opacity="1" stop-color="rgb(55.010986%, 76.313782%, 40.605164%)" offset="0.3125"/><stop stop-opacity="1" stop-color="rgb(54.846191%, 76.24054%, 40.808105%)" offset="0.316406"/><stop stop-opacity="1" stop-color="rgb(54.682922%, 76.167297%, 41.012573%)" offset="0.320312"/><stop stop-opacity="1" stop-color="rgb(54.518127%, 76.092529%, 41.215515%)" offset="0.324219"/><stop stop-opacity="1" stop-color="rgb(54.354858%, 76.019287%, 41.419983%)" offset="0.328125"/><stop stop-opacity="1" stop-color="rgb(54.190063%, 75.944519%, 41.622925%)" offset="0.332031"/><stop stop-opacity="1" stop-color="rgb(54.026794%, 75.871277%, 41.827393%)" offset="0.335938"/><stop stop-opacity="1" stop-color="rgb(53.862%, 75.798035%, 42.030334%)" offset="0.339844"/><stop stop-opacity="1" stop-color="rgb(53.697205%, 75.724792%, 42.234802%)" offset="0.34375"/><stop stop-opacity="1" stop-color="rgb(53.53241%, 75.650024%, 42.437744%)" offset="0.347656"/><stop stop-opacity="1" stop-color="rgb(53.369141%, 75.576782%, 42.642212%)" offset="0.351562"/><stop stop-opacity="1" stop-color="rgb(53.204346%, 75.50354%, 42.845154%)" offset="0.355469"/><stop stop-opacity="1" stop-color="rgb(53.041077%, 75.430298%, 43.049622%)" offset="0.359375"/><stop stop-opacity="1" stop-color="rgb(52.876282%, 75.35553%, 43.252563%)" offset="0.363281"/><stop stop-opacity="1" stop-color="rgb(52.713013%, 75.282288%, 43.457031%)" offset="0.367188"/><stop stop-opacity="1" stop-color="rgb(52.548218%, 75.209045%, 43.659973%)" offset="0.371094"/><stop stop-opacity="1" stop-color="rgb(52.384949%, 75.135803%, 43.864441%)" offset="0.375"/><stop stop-opacity="1" stop-color="rgb(52.220154%, 75.061035%, 44.067383%)" offset="0.378906"/><stop stop-opacity="1" stop-color="rgb(52.056885%, 74.987793%, 44.271851%)" offset="0.382812"/><stop stop-opacity="1" stop-color="rgb(51.89209%, 74.914551%, 44.474792%)" offset="0.386719"/><stop stop-opacity="1" stop-color="rgb(51.727295%, 74.841309%, 44.677734%)" offset="0.390625"/><stop stop-opacity="1" stop-color="rgb(51.5625%, 74.766541%, 44.880676%)" offset="0.394531"/><stop stop-opacity="1" stop-color="rgb(51.399231%, 74.693298%, 45.085144%)" offset="0.398437"/><stop stop-opacity="1" stop-color="rgb(51.234436%, 74.620056%, 45.288086%)" offset="0.402344"/><stop stop-opacity="1" stop-color="rgb(51.071167%, 74.546814%, 45.492554%)" offset="0.40625"/><stop stop-opacity="1" stop-color="rgb(50.906372%, 74.472046%, 45.695496%)" offset="0.410156"/><stop stop-opacity="1" stop-color="rgb(50.743103%, 74.398804%, 45.899963%)" offset="0.414062"/><stop stop-opacity="1" stop-color="rgb(50.578308%, 74.324036%, 46.102905%)" offset="0.417969"/><stop stop-opacity="1" stop-color="rgb(50.415039%, 74.250793%, 46.307373%)" offset="0.421875"/><stop stop-opacity="1" stop-color="rgb(50.250244%, 74.177551%, 46.510315%)" offset="0.425781"/><stop stop-opacity="1" stop-color="rgb(50.085449%, 74.104309%, 46.714783%)" offset="0.429688"/><stop stop-opacity="1" stop-color="rgb(49.920654%, 74.029541%, 46.917725%)" offset="0.433594"/><stop stop-opacity="1" stop-color="rgb(49.757385%, 73.956299%, 47.122192%)" offset="0.4375"/><stop stop-opacity="1" stop-color="rgb(49.59259%, 73.883057%, 47.325134%)" offset="0.441406"/><stop stop-opacity="1" stop-color="rgb(49.429321%, 73.809814%, 47.529602%)" offset="0.445312"/><stop stop-opacity="1" stop-color="rgb(49.264526%, 73.735046%, 47.732544%)" offset="0.449219"/><stop stop-opacity="1" stop-color="rgb(49.101257%, 73.661804%, 47.937012%)" offset="0.453125"/><stop stop-opacity="1" stop-color="rgb(48.936462%, 73.588562%, 48.139954%)" offset="0.457031"/><stop stop-opacity="1" stop-color="rgb(48.773193%, 73.51532%, 48.344421%)" offset="0.460938"/><stop stop-opacity="1" stop-color="rgb(48.608398%, 73.440552%, 48.547363%)" offset="0.464844"/><stop stop-opacity="1" stop-color="rgb(48.445129%, 73.36731%, 48.751831%)" offset="0.46875"/><stop stop-opacity="1" stop-color="rgb(48.280334%, 73.294067%, 48.954773%)" offset="0.472656"/><stop stop-opacity="1" stop-color="rgb(48.11554%, 73.220825%, 49.159241%)" offset="0.476562"/><stop stop-opacity="1" stop-color="rgb(47.950745%, 73.146057%, 49.362183%)" offset="0.480469"/><stop stop-opacity="1" stop-color="rgb(47.787476%, 73.072815%, 49.56665%)" offset="0.484375"/><stop stop-opacity="1" stop-color="rgb(47.622681%, 72.999573%, 49.769592%)" offset="0.488281"/><stop stop-opacity="1" stop-color="rgb(47.459412%, 72.926331%, 49.972534%)" offset="0.492188"/><stop stop-opacity="1" stop-color="rgb(47.294617%, 72.851562%, 50.175476%)" offset="0.496094"/><stop stop-opacity="1" stop-color="rgb(47.131348%, 72.77832%, 50.379944%)" offset="0.5"/><stop stop-opacity="1" stop-color="rgb(46.966553%, 72.703552%, 50.582886%)" offset="0.503906"/><stop stop-opacity="1" stop-color="rgb(46.803284%, 72.63031%, 50.787354%)" offset="0.507812"/><stop stop-opacity="1" stop-color="rgb(46.638489%, 72.557068%, 50.990295%)" offset="0.511719"/><stop stop-opacity="1" stop-color="rgb(46.473694%, 72.483826%, 51.194763%)" offset="0.515625"/><stop stop-opacity="1" stop-color="rgb(46.308899%, 72.409058%, 51.397705%)" offset="0.519531"/><stop stop-opacity="1" stop-color="rgb(46.14563%, 72.335815%, 51.602173%)" offset="0.523438"/><stop stop-opacity="1" stop-color="rgb(45.980835%, 72.262573%, 51.805115%)" offset="0.527344"/><stop stop-opacity="1" stop-color="rgb(45.817566%, 72.189331%, 52.009583%)" offset="0.53125"/><stop stop-opacity="1" stop-color="rgb(45.652771%, 72.114563%, 52.212524%)" offset="0.535156"/><stop stop-opacity="1" stop-color="rgb(45.489502%, 72.041321%, 52.416992%)" offset="0.539062"/><stop stop-opacity="1" stop-color="rgb(45.324707%, 71.968079%, 52.619934%)" offset="0.542969"/><stop stop-opacity="1" stop-color="rgb(45.161438%, 71.894836%, 52.824402%)" offset="0.546875"/><stop stop-opacity="1" stop-color="rgb(44.996643%, 71.820068%, 53.027344%)" offset="0.550781"/><stop stop-opacity="1" stop-color="rgb(44.833374%, 71.746826%, 53.231812%)" offset="0.554688"/><stop stop-opacity="1" stop-color="rgb(44.668579%, 71.673584%, 53.434753%)" offset="0.558594"/><stop stop-opacity="1" stop-color="rgb(44.503784%, 71.600342%, 53.639221%)" offset="0.5625"/><stop stop-opacity="1" stop-color="rgb(44.338989%, 71.525574%, 53.842163%)" offset="0.566406"/><stop stop-opacity="1" stop-color="rgb(44.17572%, 71.452332%, 54.046631%)" offset="0.570312"/><stop stop-opacity="1" stop-color="rgb(44.010925%, 71.379089%, 54.249573%)" offset="0.574219"/><stop stop-opacity="1" stop-color="rgb(43.847656%, 71.305847%, 54.454041%)" offset="0.578125"/><stop stop-opacity="1" stop-color="rgb(43.682861%, 71.231079%, 54.656982%)" offset="0.582031"/><stop stop-opacity="1" stop-color="rgb(43.519592%, 71.157837%, 54.86145%)" offset="0.585938"/><stop stop-opacity="1" stop-color="rgb(43.354797%, 71.083069%, 55.064392%)" offset="0.589844"/><stop stop-opacity="1" stop-color="rgb(43.191528%, 71.009827%, 55.267334%)" offset="0.59375"/><stop stop-opacity="1" stop-color="rgb(43.026733%, 70.936584%, 55.470276%)" offset="0.597656"/><stop stop-opacity="1" stop-color="rgb(42.863464%, 70.863342%, 55.674744%)" offset="0.601562"/><stop stop-opacity="1" stop-color="rgb(42.698669%, 70.788574%, 55.877686%)" offset="0.605469"/><stop stop-opacity="1" stop-color="rgb(42.533875%, 70.715332%, 56.082153%)" offset="0.609375"/><stop stop-opacity="1" stop-color="rgb(42.36908%, 70.64209%, 56.285095%)" offset="0.613281"/><stop stop-opacity="1" stop-color="rgb(42.205811%, 70.568848%, 56.489563%)" offset="0.617188"/><stop stop-opacity="1" stop-color="rgb(42.041016%, 70.49408%, 56.692505%)" offset="0.621094"/><stop stop-opacity="1" stop-color="rgb(41.877747%, 70.420837%, 56.896973%)" offset="0.625"/><stop stop-opacity="1" stop-color="rgb(41.712952%, 70.347595%, 57.099915%)" offset="0.628906"/><stop stop-opacity="1" stop-color="rgb(41.549683%, 70.274353%, 57.304382%)" offset="0.632812"/><stop stop-opacity="1" stop-color="rgb(41.384888%, 70.199585%, 57.507324%)" offset="0.636719"/><stop stop-opacity="1" stop-color="rgb(41.221619%, 70.126343%, 57.711792%)" offset="0.640625"/><stop stop-opacity="1" stop-color="rgb(41.056824%, 70.053101%, 57.914734%)" offset="0.644531"/><stop stop-opacity="1" stop-color="rgb(40.892029%, 69.979858%, 58.119202%)" offset="0.648438"/><stop stop-opacity="1" stop-color="rgb(40.727234%, 69.90509%, 58.322144%)" offset="0.652344"/><stop stop-opacity="1" stop-color="rgb(40.563965%, 69.831848%, 58.526611%)" offset="0.65625"/><stop stop-opacity="1" stop-color="rgb(40.39917%, 69.758606%, 58.729553%)" offset="0.660156"/><stop stop-opacity="1" stop-color="rgb(40.235901%, 69.685364%, 58.934021%)" offset="0.664062"/><stop stop-opacity="1" stop-color="rgb(40.071106%, 69.610596%, 59.136963%)" offset="0.667969"/><stop stop-opacity="1" stop-color="rgb(39.907837%, 69.537354%, 59.341431%)" offset="0.671875"/><stop stop-opacity="1" stop-color="rgb(39.743042%, 69.462585%, 59.544373%)" offset="0.675781"/><stop stop-opacity="1" stop-color="rgb(39.579773%, 69.389343%, 59.74884%)" offset="0.679688"/><stop stop-opacity="1" stop-color="rgb(39.414978%, 69.316101%, 59.951782%)" offset="0.683594"/><stop stop-opacity="1" stop-color="rgb(39.251709%, 69.242859%, 60.15625%)" offset="0.6875"/><stop stop-opacity="1" stop-color="rgb(39.086914%, 69.168091%, 60.359192%)" offset="0.691406"/><stop stop-opacity="1" stop-color="rgb(38.922119%, 69.094849%, 60.562134%)" offset="0.695312"/><stop stop-opacity="1" stop-color="rgb(38.757324%, 69.021606%, 60.765076%)" offset="0.699219"/><stop stop-opacity="1" stop-color="rgb(38.594055%, 68.948364%, 60.969543%)" offset="0.703125"/><stop stop-opacity="1" stop-color="rgb(38.42926%, 68.873596%, 61.172485%)" offset="0.707031"/><stop stop-opacity="1" stop-color="rgb(38.265991%, 68.800354%, 61.376953%)" offset="0.710938"/><stop stop-opacity="1" stop-color="rgb(38.101196%, 68.727112%, 61.579895%)" offset="0.714844"/><stop stop-opacity="1" stop-color="rgb(37.937927%, 68.65387%, 61.784363%)" offset="0.71875"/><stop stop-opacity="1" stop-color="rgb(37.773132%, 68.579102%, 61.987305%)" offset="0.722656"/><stop stop-opacity="1" stop-color="rgb(37.609863%, 68.505859%, 62.191772%)" offset="0.726562"/><stop stop-opacity="1" stop-color="rgb(37.445068%, 68.432617%, 62.394714%)" offset="0.730469"/><stop stop-opacity="1" stop-color="rgb(37.280273%, 68.359375%, 62.599182%)" offset="0.734375"/><stop stop-opacity="1" stop-color="rgb(37.115479%, 68.284607%, 62.802124%)" offset="0.738281"/><stop stop-opacity="1" stop-color="rgb(36.952209%, 68.211365%, 63.006592%)" offset="0.742188"/><stop stop-opacity="1" stop-color="rgb(36.787415%, 68.138123%, 63.209534%)" offset="0.746094"/><stop stop-opacity="1" stop-color="rgb(36.624146%, 68.06488%, 63.414001%)" offset="0.75"/><stop stop-opacity="1" stop-color="rgb(36.459351%, 67.990112%, 63.616943%)" offset="0.753906"/><stop stop-opacity="1" stop-color="rgb(36.296082%, 67.91687%, 63.821411%)" offset="0.757812"/><stop stop-opacity="1" stop-color="rgb(36.131287%, 67.842102%, 64.024353%)" offset="0.761719"/><stop stop-opacity="1" stop-color="rgb(35.968018%, 67.76886%, 64.228821%)" offset="0.765625"/><stop stop-opacity="1" stop-color="rgb(35.803223%, 67.695618%, 64.431763%)" offset="0.769531"/><stop stop-opacity="1" stop-color="rgb(35.639954%, 67.622375%, 64.63623%)" offset="0.773438"/><stop stop-opacity="1" stop-color="rgb(35.475159%, 67.547607%, 64.839172%)" offset="0.777344"/><stop stop-opacity="1" stop-color="rgb(35.310364%, 67.474365%, 65.04364%)" offset="0.78125"/><stop stop-opacity="1" stop-color="rgb(35.145569%, 67.401123%, 65.246582%)" offset="0.785156"/><stop stop-opacity="1" stop-color="rgb(34.9823%, 67.327881%, 65.449524%)" offset="0.789062"/><stop stop-opacity="1" stop-color="rgb(34.817505%, 67.253113%, 65.652466%)" offset="0.792969"/><stop stop-opacity="1" stop-color="rgb(34.654236%, 67.179871%, 65.856934%)" offset="0.796875"/><stop stop-opacity="1" stop-color="rgb(34.489441%, 67.106628%, 66.059875%)" offset="0.800781"/><stop stop-opacity="1" stop-color="rgb(34.326172%, 67.033386%, 66.264343%)" offset="0.804688"/><stop stop-opacity="1" stop-color="rgb(34.161377%, 66.958618%, 66.467285%)" offset="0.808594"/><stop stop-opacity="1" stop-color="rgb(33.998108%, 66.885376%, 66.671753%)" offset="0.8125"/><stop stop-opacity="1" stop-color="rgb(33.833313%, 66.812134%, 66.874695%)" offset="0.816406"/><stop stop-opacity="1" stop-color="rgb(33.670044%, 66.738892%, 67.079163%)" offset="0.820312"/><stop stop-opacity="1" stop-color="rgb(33.505249%, 66.664124%, 67.282104%)" offset="0.824219"/><stop stop-opacity="1" stop-color="rgb(33.340454%, 66.590881%, 67.486572%)" offset="0.828125"/><stop stop-opacity="1" stop-color="rgb(33.175659%, 66.517639%, 67.689514%)" offset="0.832031"/><stop stop-opacity="1" stop-color="rgb(33.01239%, 66.444397%, 67.893982%)" offset="0.835938"/><stop stop-opacity="1" stop-color="rgb(32.847595%, 66.369629%, 68.096924%)" offset="0.839844"/><stop stop-opacity="1" stop-color="rgb(32.684326%, 66.296387%, 68.301392%)" offset="0.84375"/><stop stop-opacity="1" stop-color="rgb(32.519531%, 66.221619%, 68.504333%)" offset="0.847656"/><stop stop-opacity="1" stop-color="rgb(32.356262%, 66.148376%, 68.708801%)" offset="0.851562"/><stop stop-opacity="1" stop-color="rgb(32.191467%, 66.075134%, 68.911743%)" offset="0.855469"/><stop stop-opacity="1" stop-color="rgb(32.028198%, 66.001892%, 69.116211%)" offset="0.859375"/><stop stop-opacity="1" stop-color="rgb(31.913757%, 65.950012%, 69.256592%)" offset="0.875"/><stop stop-opacity="1" stop-color="rgb(31.799316%, 65.899658%, 69.398499%)" offset="0.886069"/><stop stop-opacity="1" stop-color="rgb(31.799316%, 65.899658%, 69.398499%)" offset="1"/></linearGradient></defs><g clip-path="url(#9a001534c3)"><g clip-path="url(#f8358ccffd)"><path fill="url(#6c243be55d)" d="M 94.253906 6.277344 L 94.253906 225.914062 L 281.003906 225.914062 L 281.003906 6.277344 Z M 94.253906 6.277344 " fill-rule="nonzero"/></g></g><g fill="#51a8b1" fill-opacity="1"><g transform="translate(1.637056, 278.623357)"><g><path d="M 16.203125 -17.0625 L 16.203125 -13.015625 C 16.203125 -11.703125 16.375 -10.753906 16.71875 -10.171875 C 17.0625 -9.597656 17.597656 -9.3125 18.328125 -9.3125 C 19.066406 -9.3125 19.570312 -9.4375 19.84375 -9.6875 C 20.113281 -9.9375 20.394531 -10.414062 20.6875 -11.125 C 20.976562 -11.84375 21.523438 -12.203125 22.328125 -12.203125 L 33.609375 -12.203125 C 34.035156 -12.203125 34.398438 -12.046875 34.703125 -11.734375 C 35.015625 -11.429688 35.171875 -11.03125 35.171875 -10.53125 C 35.171875 -10.03125 35 -9.351562 34.65625 -8.5 C 34.3125 -7.65625 33.710938 -6.691406 32.859375 -5.609375 C 32.015625 -4.535156 30.972656 -3.539062 29.734375 -2.625 C 28.503906 -1.71875 26.882812 -0.957031 24.875 -0.34375 C 22.875 0.269531 20.65625 0.578125 18.21875 0.578125 C 13.40625 0.578125 9.503906 -0.679688 6.515625 -3.203125 C 3.523438 -5.734375 2.03125 -9.238281 2.03125 -13.71875 L 2.03125 -16.375 C 2.03125 -20.84375 3.523438 -24.34375 6.515625 -26.875 C 9.503906 -29.40625 13.40625 -30.671875 18.21875 -30.671875 C 21.070312 -30.671875 23.65625 -30.234375 25.96875 -29.359375 C 28.289062 -28.492188 30.078125 -27.429688 31.328125 -26.171875 C 32.585938 -24.921875 33.539062 -23.695312 34.1875 -22.5 C 34.84375 -21.3125 35.171875 -20.394531 35.171875 -19.75 C 35.171875 -19.113281 35.015625 -18.640625 34.703125 -18.328125 C 34.398438 -18.023438 34.035156 -17.875 33.609375 -17.875 L 22.328125 -17.875 C 21.597656 -17.875 21.039062 -18.257812 20.65625 -19.03125 C 20.113281 -20.1875 19.398438 -20.765625 18.515625 -20.765625 C 16.972656 -20.765625 16.203125 -19.53125 16.203125 -17.0625 Z M 16.203125 -17.0625 "/></g></g></g><g fill="#51a8b1" fill-opacity="1"><g transform="translate(41.268413, 278.623357)"><g><path d="M 2.609375 -12.5625 L 2.609375 -28.53125 C 2.609375 -28.945312 2.757812 -29.3125 3.0625 -29.625 C 3.375 -29.9375 3.742188 -30.09375 4.171875 -30.09375 L 15.21875 -30.09375 C 15.644531 -30.09375 16.007812 -29.9375 16.3125 -29.625 C 16.625 -29.3125 16.78125 -28.945312 16.78125 -28.53125 L 16.78125 -12.953125 C 16.78125 -10.835938 17.742188 -9.78125 19.671875 -9.78125 C 21.597656 -9.78125 22.5625 -10.835938 22.5625 -12.953125 L 22.5625 -28.53125 C 22.5625 -28.945312 22.710938 -29.3125 23.015625 -29.625 C 23.328125 -29.9375 23.695312 -30.09375 24.125 -30.09375 L 35.125 -30.09375 C 35.539062 -30.09375 35.90625 -29.9375 36.21875 -29.625 C 36.53125 -29.3125 36.6875 -28.945312 36.6875 -28.53125 L 36.6875 -1.5625 C 36.6875 -1.132812 36.53125 -0.765625 36.21875 -0.453125 C 35.90625 -0.148438 35.539062 0 35.125 0 L 25 0 C 24.570312 0 24.203125 -0.148438 23.890625 -0.453125 C 23.585938 -0.765625 23.4375 -1.132812 23.4375 -1.5625 L 23.4375 -3.46875 C 21.625 -0.769531 18.421875 0.578125 13.828125 0.578125 C 10.660156 0.578125 8 -0.53125 5.84375 -2.75 C 3.6875 -4.96875 2.609375 -8.238281 2.609375 -12.5625 Z M 2.609375 -12.5625 "/></g></g></g><g fill="#51a8b1" fill-opacity="1"><g transform="translate(83.561115, 278.623357)"><g><path d="M 15.5625 -28.53125 L 15.5625 -26.5 C 18.257812 -28.894531 21.269531 -30.09375 24.59375 -30.09375 L 27.375 -30.09375 C 27.789062 -30.09375 28.15625 -29.9375 28.46875 -29.625 C 28.78125 -29.3125 28.9375 -28.945312 28.9375 -28.53125 L 28.9375 -19.5 C 28.9375 -19.070312 28.78125 -18.703125 28.46875 -18.390625 C 28.15625 -18.085938 27.789062 -17.9375 27.375 -17.9375 L 19.90625 -17.9375 C 18.863281 -17.9375 18.039062 -17.691406 17.4375 -17.203125 C 16.84375 -16.722656 16.507812 -16.082031 16.4375 -15.28125 L 16.4375 -1.5625 C 16.4375 -1.132812 16.28125 -0.765625 15.96875 -0.453125 C 15.65625 -0.148438 15.289062 0 14.875 0 L 3.875 0 C 3.445312 0 3.078125 -0.148438 2.765625 -0.453125 C 2.460938 -0.765625 2.3125 -1.132812 2.3125 -1.5625 L 2.3125 -28.53125 C 2.3125 -28.945312 2.460938 -29.3125 2.765625 -29.625 C 3.078125 -29.9375 3.445312 -30.09375 3.875 -30.09375 L 14 -30.09375 C 14.425781 -30.09375 14.789062 -29.9375 15.09375 -29.625 C 15.40625 -29.3125 15.5625 -28.945312 15.5625 -28.53125 Z M 15.5625 -28.53125 "/></g></g></g><g fill="#51a8b1" fill-opacity="1"><g transform="translate(116.944089, 278.623357)"><g><path d="M 15.5625 -28.53125 L 15.5625 -26.5 C 18.257812 -28.894531 21.269531 -30.09375 24.59375 -30.09375 L 27.375 -30.09375 C 27.789062 -30.09375 28.15625 -29.9375 28.46875 -29.625 C 28.78125 -29.3125 28.9375 -28.945312 28.9375 -28.53125 L 28.9375 -19.5 C 28.9375 -19.070312 28.78125 -18.703125 28.46875 -18.390625 C 28.15625 -18.085938 27.789062 -17.9375 27.375 -17.9375 L 19.90625 -17.9375 C 18.863281 -17.9375 18.039062 -17.691406 17.4375 -17.203125 C 16.84375 -16.722656 16.507812 -16.082031 16.4375 -15.28125 L 16.4375 -1.5625 C 16.4375 -1.132812 16.28125 -0.765625 15.96875 -0.453125 C 15.65625 -0.148438 15.289062 0 14.875 0 L 3.875 0 C 3.445312 0 3.078125 -0.148438 2.765625 -0.453125 C 2.460938 -0.765625 2.3125 -1.132812 2.3125 -1.5625 L 2.3125 -28.53125 C 2.3125 -28.945312 2.460938 -29.3125 2.765625 -29.625 C 3.078125 -29.9375 3.445312 -30.09375 3.875 -30.09375 L 14 -30.09375 C 14.425781 -30.09375 14.789062 -29.9375 15.09375 -29.625 C 15.40625 -29.3125 15.5625 -28.945312 15.5625 -28.53125 Z M 15.5625 -28.53125 "/></g></g></g><g fill="#51a8b1" fill-opacity="1"><g transform="translate(150.327064, 278.623357)"><g><path d="M 14.8125 0 L 4.453125 0 C 4.023438 0 3.65625 -0.148438 3.34375 -0.453125 C 3.039062 -0.765625 2.890625 -1.132812 2.890625 -1.5625 L 2.890625 -28.53125 C 2.890625 -28.945312 3.039062 -29.3125 3.34375 -29.625 C 3.65625 -29.9375 4.023438 -30.09375 4.453125 -30.09375 L 14.8125 -30.09375 C 15.238281 -30.09375 15.601562 -29.9375 15.90625 -29.625 C 16.21875 -29.3125 16.375 -28.945312 16.375 -28.53125 L 16.375 -1.5625 C 16.375 -1.132812 16.21875 -0.765625 15.90625 -0.453125 C 15.601562 -0.148438 15.238281 0 14.8125 0 Z M 16.078125 -41.25 L 16.078125 -34.25 C 16.078125 -33.820312 15.921875 -33.453125 15.609375 -33.140625 C 15.304688 -32.835938 14.941406 -32.6875 14.515625 -32.6875 L 4.75 -32.6875 C 4.320312 -32.6875 3.953125 -32.835938 3.640625 -33.140625 C 3.335938 -33.453125 3.1875 -33.820312 3.1875 -34.25 L 3.1875 -41.25 C 3.1875 -41.675781 3.335938 -42.039062 3.640625 -42.34375 C 3.953125 -42.65625 4.320312 -42.8125 4.75 -42.8125 L 14.515625 -42.8125 C 14.941406 -42.8125 15.304688 -42.65625 15.609375 -42.34375 C 15.921875 -42.039062 16.078125 -41.675781 16.078125 -41.25 Z M 16.078125 -41.25 "/></g></g></g><g fill="#51a8b1" fill-opacity="1"><g transform="translate(172.312513, 278.623357)"><g><path d="M 16.203125 -17.0625 L 16.203125 -13.015625 C 16.203125 -11.703125 16.375 -10.753906 16.71875 -10.171875 C 17.0625 -9.597656 17.597656 -9.3125 18.328125 -9.3125 C 19.066406 -9.3125 19.570312 -9.4375 19.84375 -9.6875 C 20.113281 -9.9375 20.394531 -10.414062 20.6875 -11.125 C 20.976562 -11.84375 21.523438 -12.203125 22.328125 -12.203125 L 33.609375 -12.203125 C 34.035156 -12.203125 34.398438 -12.046875 34.703125 -11.734375 C 35.015625 -11.429688 35.171875 -11.03125 35.171875 -10.53125 C 35.171875 -10.03125 35 -9.351562 34.65625 -8.5 C 34.3125 -7.65625 33.710938 -6.691406 32.859375 -5.609375 C 32.015625 -4.535156 30.972656 -3.539062 29.734375 -2.625 C 28.503906 -1.71875 26.882812 -0.957031 24.875 -0.34375 C 22.875 0.269531 20.65625 0.578125 18.21875 0.578125 C 13.40625 0.578125 9.503906 -0.679688 6.515625 -3.203125 C 3.523438 -5.734375 2.03125 -9.238281 2.03125 -13.71875 L 2.03125 -16.375 C 2.03125 -20.84375 3.523438 -24.34375 6.515625 -26.875 C 9.503906 -29.40625 13.40625 -30.671875 18.21875 -30.671875 C 21.070312 -30.671875 23.65625 -30.234375 25.96875 -29.359375 C 28.289062 -28.492188 30.078125 -27.429688 31.328125 -26.171875 C 32.585938 -24.921875 33.539062 -23.695312 34.1875 -22.5 C 34.84375 -21.3125 35.171875 -20.394531 35.171875 -19.75 C 35.171875 -19.113281 35.015625 -18.640625 34.703125 -18.328125 C 34.398438 -18.023438 34.035156 -17.875 33.609375 -17.875 L 22.328125 -17.875 C 21.597656 -17.875 21.039062 -18.257812 20.65625 -19.03125 C 20.113281 -20.1875 19.398438 -20.765625 18.515625 -20.765625 C 16.972656 -20.765625 16.203125 -19.53125 16.203125 -17.0625 Z M 16.203125 -17.0625 "/></g></g></g><g fill="#51a8b1" fill-opacity="1"><g transform="translate(211.94388, 278.623357)"><g><path d="M 2.609375 -12.5625 L 2.609375 -28.53125 C 2.609375 -28.945312 2.757812 -29.3125 3.0625 -29.625 C 3.375 -29.9375 3.742188 -30.09375 4.171875 -30.09375 L 15.21875 -30.09375 C 15.644531 -30.09375 16.007812 -29.9375 16.3125 -29.625 C 16.625 -29.3125 16.78125 -28.945312 16.78125 -28.53125 L 16.78125 -12.953125 C 16.78125 -10.835938 17.742188 -9.78125 19.671875 -9.78125 C 21.597656 -9.78125 22.5625 -10.835938 22.5625 -12.953125 L 22.5625 -28.53125 C 22.5625 -28.945312 22.710938 -29.3125 23.015625 -29.625 C 23.328125 -29.9375 23.695312 -30.09375 24.125 -30.09375 L 35.125 -30.09375 C 35.539062 -30.09375 35.90625 -29.9375 36.21875 -29.625 C 36.53125 -29.3125 36.6875 -28.945312 36.6875 -28.53125 L 36.6875 -1.5625 C 36.6875 -1.132812 36.53125 -0.765625 36.21875 -0.453125 C 35.90625 -0.148438 35.539062 0 35.125 0 L 25 0 C 24.570312 0 24.203125 -0.148438 23.890625 -0.453125 C 23.585938 -0.765625 23.4375 -1.132812 23.4375 -1.5625 L 23.4375 -3.46875 C 21.625 -0.769531 18.421875 0.578125 13.828125 0.578125 C 10.660156 0.578125 8 -0.53125 5.84375 -2.75 C 3.6875 -4.96875 2.609375 -8.238281 2.609375 -12.5625 Z M 2.609375 -12.5625 "/></g></g></g><g fill="#51a8b1" fill-opacity="1"><g transform="translate(254.236572, 278.623357)"><g><path d="M 14.8125 0 L 4.453125 0 C 4.023438 0 3.65625 -0.148438 3.34375 -0.453125 C 3.039062 -0.765625 2.890625 -1.132812 2.890625 -1.5625 L 2.890625 -39.515625 C 2.890625 -39.941406 3.039062 -40.304688 3.34375 -40.609375 C 3.65625 -40.921875 4.023438 -41.078125 4.453125 -41.078125 L 14.8125 -41.078125 C 15.238281 -41.078125 15.601562 -40.921875 15.90625 -40.609375 C 16.21875 -40.304688 16.375 -39.941406 16.375 -39.515625 L 16.375 -1.5625 C 16.375 -1.132812 16.21875 -0.765625 15.90625 -0.453125 C 15.601562 -0.148438 15.238281 0 14.8125 0 Z M 14.8125 0 "/></g></g></g><g fill="#51a8b1" fill-opacity="1"><g transform="translate(276.222021, 278.623357)"><g><path d="M 2.609375 -12.5625 L 2.609375 -28.53125 C 2.609375 -28.945312 2.757812 -29.3125 3.0625 -29.625 C 3.375 -29.9375 3.742188 -30.09375 4.171875 -30.09375 L 15.21875 -30.09375 C 15.644531 -30.09375 16.007812 -29.9375 16.3125 -29.625 C 16.625 -29.3125 16.78125 -28.945312 16.78125 -28.53125 L 16.78125 -12.953125 C 16.78125 -10.835938 17.742188 -9.78125 19.671875 -9.78125 C 21.597656 -9.78125 22.5625 -10.835938 22.5625 -12.953125 L 22.5625 -28.53125 C 22.5625 -28.945312 22.710938 -29.3125 23.015625 -29.625 C 23.328125 -29.9375 23.695312 -30.09375 24.125 -30.09375 L 35.125 -30.09375 C 35.539062 -30.09375 35.90625 -29.9375 36.21875 -29.625 C 36.53125 -29.3125 36.6875 -28.945312 36.6875 -28.53125 L 36.6875 -1.5625 C 36.6875 -1.132812 36.53125 -0.765625 36.21875 -0.453125 C 35.90625 -0.148438 35.539062 0 35.125 0 L 25 0 C 24.570312 0 24.203125 -0.148438 23.890625 -0.453125 C 23.585938 -0.765625 23.4375 -1.132812 23.4375 -1.5625 L 23.4375 -3.46875 C 21.625 -0.769531 18.421875 0.578125 13.828125 0.578125 C 10.660156 0.578125 8 -0.53125 5.84375 -2.75 C 3.6875 -4.96875 2.609375 -8.238281 2.609375 -12.5625 Z M 2.609375 -12.5625 "/></g></g></g><g fill="#51a8b1" fill-opacity="1"><g transform="translate(318.514735, 278.623357)"><g><path d="M 36.625 -20.3125 C 36.007812 -20.3125 35.476562 -20.078125 35.03125 -19.609375 C 34.59375 -19.148438 34.375 -18.457031 34.375 -17.53125 L 34.375 -1.5625 C 34.375 -1.132812 34.21875 -0.765625 33.90625 -0.453125 C 33.59375 -0.148438 33.226562 0 32.8125 0 L 22.625 0 C 22.195312 0 21.828125 -0.148438 21.515625 -0.453125 C 21.210938 -0.765625 21.0625 -1.132812 21.0625 -1.5625 L 21.0625 -17.125 C 21.0625 -19.25 20.289062 -20.3125 18.75 -20.3125 C 18.09375 -20.3125 17.539062 -20.066406 17.09375 -19.578125 C 16.65625 -19.097656 16.4375 -18.4375 16.4375 -17.59375 L 16.4375 -1.5625 C 16.4375 -1.132812 16.28125 -0.765625 15.96875 -0.453125 C 15.65625 -0.148438 15.289062 0 14.875 0 L 4.453125 0 C 4.023438 0 3.65625 -0.148438 3.34375 -0.453125 C 3.039062 -0.765625 2.890625 -1.132812 2.890625 -1.5625 L 2.890625 -28.53125 C 2.890625 -28.945312 3.039062 -29.3125 3.34375 -29.625 C 3.65625 -29.9375 4.023438 -30.09375 4.453125 -30.09375 L 14 -30.09375 C 14.425781 -30.09375 14.789062 -29.9375 15.09375 -29.625 C 15.40625 -29.3125 15.5625 -28.945312 15.5625 -28.53125 L 15.5625 -26.609375 C 16.332031 -27.617188 17.429688 -28.523438 18.859375 -29.328125 C 20.441406 -30.222656 22.21875 -30.671875 24.1875 -30.671875 C 28.425781 -30.671875 31.28125 -29.085938 32.75 -25.921875 C 33.675781 -27.273438 34.945312 -28.40625 36.5625 -29.3125 C 38.1875 -30.21875 39.863281 -30.671875 41.59375 -30.671875 C 44.71875 -30.671875 47.273438 -29.566406 49.265625 -27.359375 C 51.253906 -25.160156 52.25 -21.882812 52.25 -17.53125 L 52.25 -1.5625 C 52.25 -1.132812 52.09375 -0.765625 51.78125 -0.453125 C 51.476562 -0.148438 51.113281 0 50.6875 0 L 40.5 0 C 40.070312 0 39.703125 -0.148438 39.390625 -0.453125 C 39.085938 -0.765625 38.9375 -1.132812 38.9375 -1.5625 L 38.9375 -17.125 C 38.9375 -19.25 38.164062 -20.3125 36.625 -20.3125 Z M 36.625 -20.3125 "/></g></g></g><g fill="#a8cf45" fill-opacity="1"><g transform="translate(99.596653, 314.483651)"><g><path d="M 10.421875 -10.984375 L 10.421875 -8.375 C 10.421875 -7.53125 10.53125 -6.921875 10.75 -6.546875 C 10.976562 -6.179688 11.328125 -6 11.796875 -6 C 12.273438 -6 12.597656 -6.078125 12.765625 -6.234375 C 12.941406 -6.398438 13.125 -6.710938 13.3125 -7.171875 C 13.5 -7.628906 13.851562 -7.859375 14.375 -7.859375 L 21.640625 -7.859375 C 21.910156 -7.859375 22.144531 -7.757812 22.34375 -7.5625 C 22.539062 -7.363281 22.640625 -7.101562 22.640625 -6.78125 C 22.640625 -6.457031 22.523438 -6.019531 22.296875 -5.46875 C 22.078125 -4.925781 21.691406 -4.304688 21.140625 -3.609375 C 20.597656 -2.910156 19.929688 -2.269531 19.140625 -1.6875 C 18.347656 -1.101562 17.304688 -0.613281 16.015625 -0.21875 C 14.722656 0.175781 13.296875 0.375 11.734375 0.375 C 8.628906 0.375 6.113281 -0.4375 4.1875 -2.0625 C 2.257812 -3.6875 1.296875 -5.941406 1.296875 -8.828125 L 1.296875 -10.53125 C 1.296875 -13.414062 2.257812 -15.671875 4.1875 -17.296875 C 6.113281 -18.921875 8.628906 -19.734375 11.734375 -19.734375 C 13.566406 -19.734375 15.226562 -19.453125 16.71875 -18.890625 C 18.207031 -18.335938 19.351562 -17.65625 20.15625 -16.84375 C 20.96875 -16.039062 21.582031 -15.253906 22 -14.484375 C 22.425781 -13.710938 22.640625 -13.117188 22.640625 -12.703125 C 22.640625 -12.296875 22.539062 -11.992188 22.34375 -11.796875 C 22.144531 -11.597656 21.910156 -11.5 21.640625 -11.5 L 14.375 -11.5 C 13.90625 -11.5 13.546875 -11.75 13.296875 -12.25 C 12.941406 -12.988281 12.484375 -13.359375 11.921875 -13.359375 C 10.921875 -13.359375 10.421875 -12.566406 10.421875 -10.984375 Z M 10.421875 -10.984375 "/></g></g></g><g fill="#a8cf45" fill-opacity="1"><g transform="translate(131.169916, 314.483651)"><g><path d="M 1.296875 -8.421875 L 1.296875 -10.953125 C 1.296875 -13.773438 2.300781 -15.941406 4.3125 -17.453125 C 6.320312 -18.972656 8.914062 -19.734375 12.09375 -19.734375 C 15.269531 -19.734375 17.863281 -18.972656 19.875 -17.453125 C 21.894531 -15.941406 22.90625 -13.773438 22.90625 -10.953125 L 22.90625 -8.421875 C 22.90625 -5.566406 21.9375 -3.382812 20 -1.875 C 18.0625 -0.375 15.425781 0.375 12.09375 0.375 C 8.769531 0.375 6.140625 -0.375 4.203125 -1.875 C 2.265625 -3.382812 1.296875 -5.566406 1.296875 -8.421875 Z M 13.78125 -8.109375 L 13.78125 -11.25 C 13.78125 -12.1875 13.65625 -12.84375 13.40625 -13.21875 C 13.15625 -13.59375 12.71875 -13.78125 12.09375 -13.78125 C 11.476562 -13.78125 11.046875 -13.59375 10.796875 -13.21875 C 10.546875 -12.84375 10.421875 -12.1875 10.421875 -11.25 L 10.421875 -8.109375 C 10.421875 -7.117188 10.546875 -6.445312 10.796875 -6.09375 C 11.046875 -5.75 11.476562 -5.578125 12.09375 -5.578125 C 12.71875 -5.578125 13.15625 -5.765625 13.40625 -6.140625 C 13.65625 -6.515625 13.78125 -7.171875 13.78125 -8.109375 Z M 13.78125 -8.109375 "/></g></g></g><g fill="#a8cf45" fill-opacity="1"><g transform="translate(163.189946, 314.483651)"><g><path d="M 10.015625 -18.359375 L 10.015625 -17.046875 C 11.753906 -18.585938 13.691406 -19.359375 15.828125 -19.359375 L 17.609375 -19.359375 C 17.878906 -19.359375 18.113281 -19.257812 18.3125 -19.0625 C 18.507812 -18.863281 18.609375 -18.628906 18.609375 -18.359375 L 18.609375 -12.546875 C 18.609375 -12.273438 18.507812 -12.039062 18.3125 -11.84375 C 18.113281 -11.644531 17.878906 -11.546875 17.609375 -11.546875 L 12.8125 -11.546875 C 12.132812 -11.546875 11.601562 -11.390625 11.21875 -11.078125 C 10.84375 -10.765625 10.628906 -10.347656 10.578125 -9.828125 L 10.578125 -1 C 10.578125 -0.726562 10.476562 -0.492188 10.28125 -0.296875 C 10.082031 -0.0976562 9.84375 0 9.5625 0 L 2.5 0 C 2.21875 0 1.976562 -0.0976562 1.78125 -0.296875 C 1.582031 -0.492188 1.484375 -0.726562 1.484375 -1 L 1.484375 -18.359375 C 1.484375 -18.628906 1.582031 -18.863281 1.78125 -19.0625 C 1.976562 -19.257812 2.21875 -19.359375 2.5 -19.359375 L 9.015625 -19.359375 C 9.285156 -19.359375 9.519531 -19.257812 9.71875 -19.0625 C 9.914062 -18.863281 10.015625 -18.628906 10.015625 -18.359375 Z M 10.015625 -18.359375 "/></g></g></g><g fill="#a8cf45" fill-opacity="1"><g transform="translate(190.742316, 314.483651)"><g><path d="M 23.796875 -11.28125 L 23.796875 -1 C 23.796875 -0.726562 23.695312 -0.492188 23.5 -0.296875 C 23.300781 -0.0976562 23.0625 0 22.78125 0 L 15.671875 0 C 15.398438 0 15.164062 -0.0976562 14.96875 -0.296875 C 14.769531 -0.492188 14.671875 -0.726562 14.671875 -1 L 14.671875 -11.015625 C 14.671875 -12.378906 14.050781 -13.0625 12.8125 -13.0625 C 11.570312 -13.0625 10.953125 -12.378906 10.953125 -11.015625 L 10.953125 -1 C 10.953125 -0.726562 10.847656 -0.492188 10.640625 -0.296875 C 10.441406 -0.0976562 10.207031 0 9.9375 0 L 2.859375 0 C 2.585938 0 2.351562 -0.0976562 2.15625 -0.296875 C 1.957031 -0.492188 1.859375 -0.726562 1.859375 -1 L 1.859375 -18.359375 C 1.859375 -18.628906 1.957031 -18.863281 2.15625 -19.0625 C 2.351562 -19.257812 2.585938 -19.359375 2.859375 -19.359375 L 9.390625 -19.359375 C 9.660156 -19.359375 9.894531 -19.257812 10.09375 -19.0625 C 10.289062 -18.863281 10.390625 -18.628906 10.390625 -18.359375 L 10.390625 -17.125 C 11.035156 -17.894531 11.910156 -18.519531 13.015625 -19 C 14.117188 -19.488281 15.300781 -19.734375 16.5625 -19.734375 C 18.601562 -19.734375 20.316406 -19.019531 21.703125 -17.59375 C 23.097656 -16.164062 23.796875 -14.0625 23.796875 -11.28125 Z M 23.796875 -11.28125 "/></g></g></g><g fill="#a8cf45" fill-opacity="1"><g transform="translate(224.028175, 314.483651)"><g><path d="M 21.515625 -7.484375 L 10.421875 -7.484375 L 10.421875 -7.296875 C 10.421875 -5.785156 10.90625 -5.03125 11.875 -5.03125 C 12.144531 -5.03125 12.476562 -5.226562 12.875 -5.625 C 13.28125 -6.019531 13.71875 -6.21875 14.1875 -6.21875 L 21.21875 -6.21875 C 21.769531 -6.21875 22.046875 -5.945312 22.046875 -5.40625 C 22.046875 -4.1875 21.128906 -2.914062 19.296875 -1.59375 C 17.472656 -0.28125 15.003906 0.375 11.890625 0.375 C 8.773438 0.375 6.226562 -0.4375 4.25 -2.0625 C 2.28125 -3.6875 1.296875 -5.925781 1.296875 -8.78125 L 1.296875 -10.578125 C 1.296875 -13.285156 2.300781 -15.488281 4.3125 -17.1875 C 6.320312 -18.882812 8.957031 -19.734375 12.21875 -19.734375 C 15.488281 -19.734375 18.023438 -18.773438 19.828125 -16.859375 C 21.628906 -14.953125 22.53125 -12.535156 22.53125 -9.609375 L 22.53125 -8.484375 C 22.53125 -8.210938 22.429688 -7.976562 22.234375 -7.78125 C 22.035156 -7.582031 21.796875 -7.484375 21.515625 -7.484375 Z M 13.40625 -12.28125 C 13.40625 -13.769531 12.90625 -14.515625 11.90625 -14.515625 C 10.914062 -14.515625 10.421875 -13.769531 10.421875 -12.28125 L 10.421875 -12.140625 L 13.40625 -12.140625 Z M 13.40625 -12.28125 "/></g></g></g><g fill="#a8cf45" fill-opacity="1"><g transform="translate(255.675893, 314.483651)"><g><path d="M 10.015625 -18.359375 L 10.015625 -17.046875 C 11.753906 -18.585938 13.691406 -19.359375 15.828125 -19.359375 L 17.609375 -19.359375 C 17.878906 -19.359375 18.113281 -19.257812 18.3125 -19.0625 C 18.507812 -18.863281 18.609375 -18.628906 18.609375 -18.359375 L 18.609375 -12.546875 C 18.609375 -12.273438 18.507812 -12.039062 18.3125 -11.84375 C 18.113281 -11.644531 17.878906 -11.546875 17.609375 -11.546875 L 12.8125 -11.546875 C 12.132812 -11.546875 11.601562 -11.390625 11.21875 -11.078125 C 10.84375 -10.765625 10.628906 -10.347656 10.578125 -9.828125 L 10.578125 -1 C 10.578125 -0.726562 10.476562 -0.492188 10.28125 -0.296875 C 10.082031 -0.0976562 9.84375 0 9.5625 0 L 2.5 0 C 2.21875 0 1.976562 -0.0976562 1.78125 -0.296875 C 1.582031 -0.492188 1.484375 -0.726562 1.484375 -1 L 1.484375 -18.359375 C 1.484375 -18.628906 1.582031 -18.863281 1.78125 -19.0625 C 1.976562 -19.257812 2.21875 -19.359375 2.5 -19.359375 L 9.015625 -19.359375 C 9.285156 -19.359375 9.519531 -19.257812 9.71875 -19.0625 C 9.914062 -18.863281 10.015625 -18.628906 10.015625 -18.359375 Z M 10.015625 -18.359375 "/></g></g></g></svg>